<svg xmlns="http://www.w3.org/2000/svg" xmlns:xlink="http://www.w3.org/1999/xlink" viewBox="0 0 512 512"><defs><linearGradient id="linear-gradient" x1="256" y1="145.6" x2="256" y2="366.4" gradientUnits="userSpaceOnUse"><stop offset="0" stop-color="#ffd359"/><stop offset="0.0702" stop-color="#ffcd4f"/><stop offset="0.2689" stop-color="#ffc037"/><stop offset="0.4806" stop-color="#ffb726"/><stop offset="0.7119" stop-color="#ffb21c"/><stop offset="1" stop-color="#ffb019"/></linearGradient><linearGradient id="linear-gradient-2" x1="286.2129" y1="232.7379" x2="322.3871" y2="268.9121" gradientUnits="userSpaceOnUse"><stop offset="0" stop-color="#334e66"/><stop offset="1" stop-color="#142f47"/></linearGradient><linearGradient id="linear-gradient-3" x1="189.6129" y1="232.7379" x2="225.7871" y2="268.9121" xlink:href="#linear-gradient-2"/></defs><g id="Angry"><circle cx="256" cy="256" r="110.4" style="fill:url(#linear-gradient)"/><path d="M301.6855,322.9905a6.8708,6.8708,0,0,1-4.5719-1.7351,62.1037,62.1037,0,0,0-82.2373-.0944,6.9008,6.9008,0,1,1-9.13-10.35,75.9069,75.9069,0,0,1,100.5183.1146,6.9,6.9,0,0,1-4.5787,12.0649Z" style="fill:#2c4866"/><rect x="283.6" y="223.225" width="41.4" height="55.2" rx="20.7" style="fill:url(#linear-gradient-2)"/><circle cx="309.475" cy="242.2" r="8.625" style="fill:#ffefdc"/><rect x="187" y="223.225" width="41.4" height="55.2" rx="20.7" style="fill:url(#linear-gradient-3)"/><circle cx="212.875" cy="242.2" r="8.625" style="fill:#ffefdc"/><path d="M276.7067,223.2235a6.9,6.9,0,0,1-3.5578-12.8162l34.5-20.7a6.9,6.9,0,0,1,7.1022,11.8324l-34.5,20.7A6.8657,6.8657,0,0,1,276.7067,223.2235Z" style="fill:#2c4866"/><path d="M235.2933,223.2235a6.8657,6.8657,0,0,1-3.5444-.9838l-34.5-20.7a6.9,6.9,0,1,1,7.1022-11.8324l34.5,20.7a6.9,6.9,0,0,1-3.5578,12.8162Z" style="fill:#2c4866"/></g></svg>