<svg xmlns="http://www.w3.org/2000/svg" xmlns:xlink="http://www.w3.org/1999/xlink" viewBox="0 0 512 512"><defs><linearGradient id="linear-gradient" x1="256" y1="145.6" x2="256" y2="366.4" gradientUnits="userSpaceOnUse"><stop offset="0" stop-color="#ffd359"/><stop offset="0.0702" stop-color="#ffcd4f"/><stop offset="0.2689" stop-color="#ffc037"/><stop offset="0.4806" stop-color="#ffb726"/><stop offset="0.7119" stop-color="#ffb21c"/><stop offset="1" stop-color="#ffb019"/></linearGradient><linearGradient id="linear-gradient-2" x1="256" y1="257.725" x2="256" y2="337.075" gradientUnits="userSpaceOnUse"><stop offset="0" stop-color="#fff7ee"/><stop offset="0.2919" stop-color="#fef5eb"/><stop offset="0.5263" stop-color="#fbeee1"/><stop offset="0.7407" stop-color="#f5e3d0"/><stop offset="0.9422" stop-color="#edd3b8"/><stop offset="1" stop-color="#eaceb0"/></linearGradient><linearGradient id="linear-gradient-3" x1="288.3564" y1="208.1693" x2="318.5186" y2="238.3314" gradientUnits="userSpaceOnUse"><stop offset="0" stop-color="#334e66"/><stop offset="1" stop-color="#142f47"/></linearGradient><linearGradient id="linear-gradient-4" x1="192.6189" y1="207.3068" x2="224.5061" y2="239.1939" xlink:href="#linear-gradient-3"/></defs><g id="Beaming_smile"><circle cx="256" cy="256" r="110.4" style="fill:url(#linear-gradient)"/><path d="M256,337.075a79.35,79.35,0,0,0,79.35-79.35H176.65A79.35,79.35,0,0,0,256,337.075Z" style="fill:url(#linear-gradient-2)"/><path d="M306.025,257.725v61.5483a76.723,76.723,0,0,1-13.8,9.0386V257.725Z" style="fill:#ddc1a3"/><path d="M262.9,257.725v79.0392c-2.2767.2072-4.5542.3108-6.9.3108s-4.6233-.1036-6.9-.3108V257.725Z" style="fill:#ddc1a3"/><path d="M219.775,257.725v70.5869a76.723,76.723,0,0,1-13.8-9.0386V257.725Z" style="fill:#ddc1a3"/><path d="M325,231.85V221.5a20.7,20.7,0,1,0-41.4,0v13.8Z" style="fill:url(#linear-gradient-3)"/><circle cx="310.3375" cy="215.4625" r="7.7625" style="fill:#ffefdc"/><path d="M228.4,235.3V221.5a20.7,20.7,0,0,0-41.4,0v10.35Z" style="fill:url(#linear-gradient-4)"/><circle cx="213.7375" cy="215.4625" r="7.7625" style="fill:#ffefdc"/></g></svg>