<svg xmlns="http://www.w3.org/2000/svg" xmlns:xlink="http://www.w3.org/1999/xlink" viewBox="0 0 512 512"><defs><linearGradient id="linear-gradient" x1="256" y1="145.6" x2="256" y2="366.4" gradientUnits="userSpaceOnUse"><stop offset="0" stop-color="#ffd359"/><stop offset="0.0702" stop-color="#ffcd4f"/><stop offset="0.2689" stop-color="#ffc037"/><stop offset="0.4806" stop-color="#ffb726"/><stop offset="0.7119" stop-color="#ffb21c"/><stop offset="1" stop-color="#ffb019"/></linearGradient><linearGradient id="linear-gradient-2" x1="256.0002" y1="263.5885" x2="256.0002" y2="326.3857" gradientUnits="userSpaceOnUse"><stop offset="0" stop-color="#334e66"/><stop offset="1" stop-color="#142f47"/></linearGradient><linearGradient id="linear-gradient-3" x1="319.4371" y1="250.896" x2="319.4371" y2="302.3641" gradientTransform="translate(34.4331 -22.4934)" gradientUnits="userSpaceOnUse"><stop offset="0" stop-color="#35b1ef"/><stop offset="1" stop-color="#0f82bc"/></linearGradient><linearGradient id="linear-gradient-4" x1="123.698" y1="250.8934" x2="123.698" y2="302.3642" xlink:href="#linear-gradient-3"/></defs><g id="Cry"><circle cx="256" cy="256" r="110.4" style="fill:url(#linear-gradient)"/><path d="M256,263.5885a62.8089,62.8089,0,0,0-62.3052,54.8966,6.9553,6.9553,0,0,0,6.8448,7.9006H311.4605a6.9554,6.9554,0,0,0,6.8449-7.9006A62.8089,62.8089,0,0,0,256,263.5885Z" style="fill:url(#linear-gradient-2)"/><path d="M326.6612,237.0235a6.6278,6.6278,0,0,1-.7716-.0438l-31.05-3.45a6.8984,6.8984,0,1,1,1.5229-13.7124l31.05,3.45a6.8992,6.8992,0,0,1-.7513,13.7562Z" style="fill:#2c4866"/><path d="M358.8411,231.81l-23.6149-3.3443a6.2168,6.2168,0,0,0-7.027,7.027l3.3443,23.6149a24.1493,24.1493,0,0,0,23.9108,20.7632h0a24.15,24.15,0,0,0,24.15-24.15v0A24.1494,24.1494,0,0,0,358.8411,231.81Z" style="fill:url(#linear-gradient-3)"/><path d="M185.3392,237.0235a6.8992,6.8992,0,0,1-.7513-13.7562l31.05-3.45a6.8983,6.8983,0,1,1,1.5228,13.7124l-31.05,3.45A6.6273,6.6273,0,0,1,185.3392,237.0235Z" style="fill:#2c4866"/><path d="M176.7938,228.4629l-24.516,3.4719a23.1245,23.1245,0,0,0-19.8821,22.896v0c0,12.5487,9.1927,23.6642,21.6788,24.9158a24.1532,24.1532,0,0,0,26.382-20.6391l3.3471-23.6349A6.2015,6.2015,0,0,0,176.7938,228.4629Z" style="fill:url(#linear-gradient-4)"/><path d="M319.751,202.574a50.4774,50.4774,0,0,1-35.9285-14.8815,6.8993,6.8993,0,0,1,9.7571-9.757A36.777,36.777,0,0,0,319.751,188.774a6.9,6.9,0,1,1,0,13.8Z" style="fill:#2c4866"/><path d="M192.2493,202.574a6.9,6.9,0,0,1,0-13.8,36.7774,36.7774,0,0,0,26.1715-10.8385,6.8992,6.8992,0,1,1,9.757,9.757A50.4772,50.4772,0,0,1,192.2493,202.574Z" style="fill:#2c4866"/></g></svg>