<svg xmlns="http://www.w3.org/2000/svg" xmlns:xlink="http://www.w3.org/1999/xlink" viewBox="0 0 512 512"><defs><linearGradient id="linear-gradient" x1="256" y1="145.6" x2="256" y2="366.4" gradientUnits="userSpaceOnUse"><stop offset="0" stop-color="#ffd359"/><stop offset="0.0702" stop-color="#ffcd4f"/><stop offset="0.2689" stop-color="#ffc037"/><stop offset="0.4806" stop-color="#ffb726"/><stop offset="0.7119" stop-color="#ffb21c"/><stop offset="1" stop-color="#ffb019"/></linearGradient></defs><g id="Disappointed"><circle cx="256" cy="256" r="110.4" style="fill:url(#linear-gradient)"/><path d="M301.685,334.203a6.872,6.872,0,0,1-4.5753-1.7385,62.0995,62.0995,0,0,0-82.2339-.0944,6.9008,6.9008,0,1,1-9.13-10.35,75.9017,75.9017,0,0,1,100.5217.1213,6.9,6.9,0,0,1-4.5821,12.0616Z" style="fill:#2c4866"/><path d="M326.6605,285.3235a6.629,6.629,0,0,1-.7716-.0438l-31.05-3.45a6.8984,6.8984,0,0,1,1.5229-13.7124l31.05,3.45a6.8992,6.8992,0,0,1-.7513,13.7562Z" style="fill:#2c4866"/><path d="M185.3385,285.3235a6.8992,6.8992,0,0,1-.7513-13.7562l31.05-3.45A6.8983,6.8983,0,1,1,217.16,281.83l-31.05,3.45A6.6261,6.6261,0,0,1,185.3385,285.3235Z" style="fill:#2c4866"/><path d="M319.75,250.874a50.4776,50.4776,0,0,1-35.9286-14.8815,6.8993,6.8993,0,1,1,9.7571-9.757A36.7771,36.7771,0,0,0,319.75,237.074a6.9,6.9,0,0,1,0,13.8Z" style="fill:#2c4866"/><path d="M192.2486,250.874a6.9,6.9,0,1,1,0-13.8A36.7774,36.7774,0,0,0,218.42,226.2355a6.8992,6.8992,0,0,1,9.757,9.757A50.4772,50.4772,0,0,1,192.2486,250.874Z" style="fill:#2c4866"/></g></svg>