<svg xmlns="http://www.w3.org/2000/svg" xmlns:xlink="http://www.w3.org/1999/xlink" viewBox="0 0 512 512"><defs><linearGradient id="linear-gradient" x1="256" y1="145.6" x2="256" y2="366.4" gradientUnits="userSpaceOnUse"><stop offset="0" stop-color="#ffd359"/><stop offset="0.0702" stop-color="#ffcd4f"/><stop offset="0.2689" stop-color="#ffc037"/><stop offset="0.4806" stop-color="#ffb726"/><stop offset="0.7119" stop-color="#ffb21c"/><stop offset="1" stop-color="#ffb019"/></linearGradient><linearGradient id="linear-gradient-2" x1="298.9949" y1="231.8532" x2="298.9949" y2="259.4532" gradientUnits="userSpaceOnUse"><stop offset="0" stop-color="#334e66"/><stop offset="1" stop-color="#142f47"/></linearGradient><linearGradient id="linear-gradient-3" x1="212.7449" y1="231.8532" x2="212.7449" y2="259.4532" xlink:href="#linear-gradient-2"/></defs><g id="Expressionless"><circle cx="256" cy="256" r="110.4" style="fill:url(#linear-gradient)"/><path d="M303.8329,307.7551H208.1662a6.9,6.9,0,0,1,0-13.8h95.6667a6.9,6.9,0,0,1,0,13.8Z" style="fill:#2c4866"/><path d="M317.97,231.8532H280.02a6.9,6.9,0,0,0,0,13.8h5.175a13.8,13.8,0,0,0,27.6,0h5.175a6.9,6.9,0,0,0,0-13.8Z" style="fill:url(#linear-gradient-2)"/><path d="M231.72,231.8532H193.77a6.9,6.9,0,0,0,0,13.8h5.175a13.8,13.8,0,0,0,27.6,0h5.175a6.9,6.9,0,0,0,0-13.8Z" style="fill:url(#linear-gradient-3)"/></g></svg>