<svg xmlns="http://www.w3.org/2000/svg" xmlns:xlink="http://www.w3.org/1999/xlink" viewBox="0 0 512 512"><defs><linearGradient id="linear-gradient" x1="256" y1="145.6" x2="256" y2="366.4" gradientUnits="userSpaceOnUse"><stop offset="0" stop-color="#ffd359"/><stop offset="0.0702" stop-color="#ffcd4f"/><stop offset="0.2689" stop-color="#ffc037"/><stop offset="0.4806" stop-color="#ffb726"/><stop offset="0.7119" stop-color="#ffb21c"/><stop offset="1" stop-color="#ffb019"/></linearGradient><linearGradient id="linear-gradient-2" x1="256.0001" y1="247.375" x2="256.0001" y2="337.075" gradientUnits="userSpaceOnUse"><stop offset="0" stop-color="#334e66"/><stop offset="0.0136" stop-color="#324d65"/><stop offset="0.2987" stop-color="#213c54"/><stop offset="0.6108" stop-color="#17324a"/><stop offset="1" stop-color="#142f47"/></linearGradient><linearGradient id="linear-gradient-3" x1="256" y1="281.875" x2="256" y2="337.075" gradientUnits="userSpaceOnUse"><stop offset="0" stop-color="#f47873"/><stop offset="1" stop-color="#e2433e"/></linearGradient><linearGradient id="linear-gradient-4" x1="304.3067" y1="178.8825" x2="304.3067" y2="243.4168" xlink:href="#linear-gradient-3"/><linearGradient id="linear-gradient-5" x1="207.6951" y1="178.8825" x2="207.6951" y2="243.4168" xlink:href="#linear-gradient-3"/></defs><g id="Falling_in_love"><circle cx="256" cy="256" r="110.4" style="fill:url(#linear-gradient)"/><path d="M256,247.375c-39.25,0-64.0673,5.7479-74.1656,8.6768a6.9509,6.9509,0,0,0-4.9978,7.1589,79.3534,79.3534,0,0,0,158.3267,0,6.9508,6.9508,0,0,0-4.9978-7.1589C320.0672,253.1229,295.2494,247.375,256,247.375Z" style="fill:url(#linear-gradient-2)"/><ellipse cx="256" cy="309.475" rx="60.1248" ry="27.6" style="fill:url(#linear-gradient-3)"/><path d="M334.7188,183.5567c-8.3007-6.8556-20.6646-5.6229-28.2772,1.99l-2.1347,2.1348s-2.5812-2.581-2.7615-2.761a20.6129,20.6129,0,1,0-29.151,29.1512c.1381.138,18.82,18.82,27.5321,27.5322a6.1968,6.1968,0,0,0,8.7724-.0124l27.5205-27.52A20.617,20.617,0,0,0,334.7188,183.5567Z" style="fill:url(#linear-gradient-4)"/><path d="M238.1072,183.5567c-8.3008-6.8556-20.6647-5.6229-28.2772,1.99l-2.1348,2.1348s-2.5812-2.581-2.7614-2.761a20.613,20.613,0,1,0-29.1511,29.1512c.1381.138,18.82,18.82,27.5322,27.5322a6.1968,6.1968,0,0,0,8.7724-.0124l27.52-27.52A20.617,20.617,0,0,0,238.1072,183.5567Z" style="fill:url(#linear-gradient-5)"/></g></svg>