<svg xmlns="http://www.w3.org/2000/svg" xmlns:xlink="http://www.w3.org/1999/xlink" viewBox="0 0 512 512"><defs><linearGradient id="linear-gradient" x1="256" y1="145.6" x2="256" y2="366.4" gradientUnits="userSpaceOnUse"><stop offset="0" stop-color="#ffd359"/><stop offset="0.0702" stop-color="#ffcd4f"/><stop offset="0.2689" stop-color="#ffc037"/><stop offset="0.4806" stop-color="#ffb726"/><stop offset="0.7119" stop-color="#ffb21c"/><stop offset="1" stop-color="#ffb019"/></linearGradient><linearGradient id="linear-gradient-2" x1="286.2129" y1="246.8033" x2="322.3871" y2="282.9775" gradientUnits="userSpaceOnUse"><stop offset="0" stop-color="#334e66"/><stop offset="1" stop-color="#142f47"/></linearGradient><linearGradient id="linear-gradient-3" x1="189.6129" y1="246.8033" x2="225.7871" y2="282.9775" xlink:href="#linear-gradient-2"/></defs><g id="Sad"><circle cx="256" cy="256" r="110.4" style="fill:url(#linear-gradient)"/><path d="M301.686,334.203a6.8719,6.8719,0,0,1-4.5753-1.7385,62.1,62.1,0,0,0-82.234-.0944,6.9008,6.9008,0,1,1-9.13-10.35,75.9017,75.9017,0,0,1,100.5217.1213,6.9,6.9,0,0,1-4.582,12.0616Z" style="fill:#2c4866"/><rect x="283.6" y="237.2904" width="41.4" height="55.2" rx="20.7" style="fill:url(#linear-gradient-2)"/><circle cx="309.475" cy="256.2654" r="8.625" style="fill:#ffefdc"/><rect x="187" y="237.2904" width="41.4" height="55.2" rx="20.7" style="fill:url(#linear-gradient-3)"/><circle cx="212.875" cy="256.2654" r="8.625" style="fill:#ffefdc"/><path d="M323.2013,230.174a50.4772,50.4772,0,0,1-35.9285-14.8815,6.8992,6.8992,0,1,1,9.757-9.757,36.7774,36.7774,0,0,0,26.1715,10.8385,6.9,6.9,0,0,1,0,13.8Z" style="fill:#2c4866"/><path d="M188.8,230.174a6.9,6.9,0,1,1,0-13.8,36.7771,36.7771,0,0,0,26.1715-10.8385,6.8993,6.8993,0,1,1,9.7571,9.757A50.4776,50.4776,0,0,1,188.8,230.174Z" style="fill:#2c4866"/></g></svg>