<svg xmlns="http://www.w3.org/2000/svg" xmlns:xlink="http://www.w3.org/1999/xlink" viewBox="0 0 512 512"><defs><linearGradient id="linear-gradient" x1="256" y1="145.6" x2="256" y2="366.4" gradientUnits="userSpaceOnUse"><stop offset="0" stop-color="#ffd359"/><stop offset="0.0702" stop-color="#ffcd4f"/><stop offset="0.2689" stop-color="#ffc037"/><stop offset="0.4806" stop-color="#ffb726"/><stop offset="0.7119" stop-color="#ffb21c"/><stop offset="1" stop-color="#ffb019"/></linearGradient><linearGradient id="linear-gradient-2" x1="286.2129" y1="215.4879" x2="322.3871" y2="251.6621" gradientUnits="userSpaceOnUse"><stop offset="0" stop-color="#334e66"/><stop offset="1" stop-color="#142f47"/></linearGradient><linearGradient id="linear-gradient-3" x1="189.6129" y1="215.4879" x2="225.7871" y2="251.6621" xlink:href="#linear-gradient-2"/></defs><g id="Smile"><circle cx="256" cy="256" r="110.4" style="fill:url(#linear-gradient)"/><path d="M256,331.8985a75.5754,75.5754,0,0,1-67.7938-41.7335,6.8993,6.8993,0,1,1,12.3175-6.22,62.1315,62.1315,0,0,0,110.9492.0034,6.8994,6.8994,0,1,1,12.3176,6.2194A75.581,75.581,0,0,1,256,331.8985Z" style="fill:#2c4866"/><rect x="283.6" y="205.975" width="41.4" height="55.2" rx="20.7" style="fill:url(#linear-gradient-2)"/><circle cx="309.475" cy="224.95" r="8.625" style="fill:#ffefdc"/><rect x="187" y="205.975" width="41.4" height="55.2" rx="20.7" style="fill:url(#linear-gradient-3)"/><circle cx="212.875" cy="224.95" r="8.625" style="fill:#ffefdc"/></g></svg>