<svg xmlns="http://www.w3.org/2000/svg" xmlns:xlink="http://www.w3.org/1999/xlink" viewBox="0 0 512 512"><defs><linearGradient id="linear-gradient" x1="256" y1="145.6" x2="256" y2="366.4" gradientUnits="userSpaceOnUse"><stop offset="0" stop-color="#ffd359"/><stop offset="0.0702" stop-color="#ffcd4f"/><stop offset="0.2689" stop-color="#ffc037"/><stop offset="0.4806" stop-color="#ffb726"/><stop offset="0.7119" stop-color="#ffb21c"/><stop offset="1" stop-color="#ffb019"/></linearGradient><linearGradient id="linear-gradient-2" x1="299.9874" y1="235.3032" x2="299.9874" y2="266.3532" gradientUnits="userSpaceOnUse"><stop offset="0" stop-color="#334e66"/><stop offset="1" stop-color="#142f47"/></linearGradient><linearGradient id="linear-gradient-3" x1="212.0126" y1="235.3032" x2="212.0126" y2="266.3532" xlink:href="#linear-gradient-2"/></defs><g id="Unamused"><circle cx="256" cy="256" r="110.4" style="fill:url(#linear-gradient)"/><path d="M215.5382,323.3273a6.9,6.9,0,0,1-4.582-12.0615,75.9392,75.9392,0,0,1,87.19-9.5482,6.9015,6.9015,0,0,1-6.7113,12.0616,62.1311,62.1311,0,0,0-71.3214,7.81A6.8719,6.8719,0,0,1,215.5382,323.3273Z" style="fill:#2c4866"/><path d="M320.6874,235.3032h-41.4a6.9,6.9,0,0,0,0,13.8h12.075v3.45a13.8,13.8,0,0,0,27.6,0v-3.45h1.725a6.9,6.9,0,0,0,0-13.8Z" style="fill:url(#linear-gradient-2)"/><path d="M232.7126,235.3032h-41.4a6.9,6.9,0,0,0,0,13.8h12.075v3.45a13.8,13.8,0,1,0,27.6,0v-3.45h1.725a6.9,6.9,0,0,0,0-13.8Z" style="fill:url(#linear-gradient-3)"/><path d="M319.8266,213.6618a6.878,6.878,0,0,1-4.8785-2.0215,36.7723,36.7723,0,0,0-26.1715-10.8419,6.9,6.9,0,1,1,0-13.8,50.478,50.478,0,0,1,35.9285,14.8849,6.9,6.9,0,0,1-4.8785,11.7785Z" style="fill:#2c4866"/><path d="M192.1766,213.6618a6.9,6.9,0,0,1-4.8785-11.7785,50.4605,50.4605,0,0,1,35.9285-14.8849,6.9,6.9,0,1,1,0,13.8A36.7666,36.7666,0,0,0,197.0551,211.64,6.8722,6.8722,0,0,1,192.1766,213.6618Z" style="fill:#2c4866"/></g></svg>